<?xml version="1.0" encoding="UTF-8"?><svg xmlns="http://www.w3.org/2000/svg" xmlns:xlink="http://www.w3.org/1999/xlink" fill-opacity="1" color-rendering="auto" color-interpolation="auto" text-rendering="auto" stroke="black" stroke-linecap="square" width="649" stroke-miterlimit="10" shape-rendering="auto" stroke-opacity="1" fill="black" stroke-dasharray="none" font-weight="normal" stroke-width="1" height="725" font-family="'Dialog'" font-style="normal" stroke-linejoin="miter" font-size="12px" stroke-dashoffset="0" image-rendering="auto">
  <!--Generated by ySVG 2.6-->
  <defs id="genericDefs"/>
  <g>
    <defs id="defs1">
      <clipPath clipPathUnits="userSpaceOnUse" id="clipPath1">
        <path d="M0 0 L649 0 L649 725 L0 725 L0 0 Z"/>
      </clipPath>
      <clipPath clipPathUnits="userSpaceOnUse" id="clipPath2">
        <path d="M39 55 L558.2 55 L558.2 635 L39 635 L39 55 Z"/>
      </clipPath>
    </defs>
    <g fill="lime" text-rendering="geometricPrecision" shape-rendering="geometricPrecision" transform="matrix(1.25,0,0,1.25,-48.75,-68.75)" stroke="lime">
      <circle r="15" clip-path="url(#clipPath2)" cx="90" cy="117" stroke="none"/>
    </g>
    <g stroke-linecap="butt" transform="matrix(1.25,0,0,1.25,-48.75,-68.75)" fill="blue" text-rendering="geometricPrecision" shape-rendering="geometricPrecision" stroke="blue" stroke-width="3" stroke-miterlimit="1.45">
      <circle fill="none" r="15" clip-path="url(#clipPath2)" cx="90" cy="117"/>
    </g>
    <g fill="lime" text-rendering="geometricPrecision" shape-rendering="geometricPrecision" transform="matrix(1.25,0,0,1.25,-48.75,-68.75)" stroke="lime">
      <circle r="15" clip-path="url(#clipPath2)" cx="230.5" cy="117" stroke="none"/>
    </g>
    <g stroke-linecap="butt" transform="matrix(1.25,0,0,1.25,-48.75,-68.75)" fill="blue" text-rendering="geometricPrecision" shape-rendering="geometricPrecision" stroke="blue" stroke-width="3" stroke-miterlimit="1.45">
      <circle fill="none" r="15" clip-path="url(#clipPath2)" cx="230.5" cy="117"/>
    </g>
    <g fill="lime" text-rendering="geometricPrecision" shape-rendering="geometricPrecision" transform="matrix(1.25,0,0,1.25,-48.75,-68.75)" stroke="lime">
      <circle r="15" clip-path="url(#clipPath2)" cx="371" cy="117" stroke="none"/>
    </g>
    <g stroke-linecap="butt" transform="matrix(1.25,0,0,1.25,-48.75,-68.75)" fill="blue" text-rendering="geometricPrecision" shape-rendering="geometricPrecision" stroke="blue" stroke-width="3" stroke-miterlimit="1.45">
      <circle fill="none" r="15" clip-path="url(#clipPath2)" cx="371" cy="117"/>
    </g>
    <g fill="lime" text-rendering="geometricPrecision" shape-rendering="geometricPrecision" transform="matrix(1.25,0,0,1.25,-48.75,-68.75)" stroke="lime">
      <circle r="15" clip-path="url(#clipPath2)" cx="511.5" cy="117" stroke="none"/>
    </g>
    <g stroke-linecap="butt" transform="matrix(1.25,0,0,1.25,-48.75,-68.75)" fill="blue" text-rendering="geometricPrecision" shape-rendering="geometricPrecision" stroke="blue" stroke-width="3" stroke-miterlimit="1.45">
      <circle fill="none" r="15" clip-path="url(#clipPath2)" cx="511.5" cy="117"/>
    </g>
    <g fill="lime" text-rendering="geometricPrecision" shape-rendering="geometricPrecision" transform="matrix(1.25,0,0,1.25,-48.75,-68.75)" stroke="lime">
      <circle r="15" clip-path="url(#clipPath2)" cx="90" cy="299.2" stroke="none"/>
    </g>
    <g stroke-linecap="butt" transform="matrix(1.25,0,0,1.25,-48.75,-68.75)" fill="blue" text-rendering="geometricPrecision" shape-rendering="geometricPrecision" stroke="blue" stroke-width="3" stroke-miterlimit="1.45">
      <circle fill="none" r="15" clip-path="url(#clipPath2)" cx="90" cy="299.2"/>
    </g>
    <g fill="lime" text-rendering="geometricPrecision" shape-rendering="geometricPrecision" transform="matrix(1.25,0,0,1.25,-48.75,-68.75)" stroke="lime">
      <circle r="15" clip-path="url(#clipPath2)" cx="230.5" cy="299.2" stroke="none"/>
    </g>
    <g stroke-linecap="butt" transform="matrix(1.25,0,0,1.25,-48.75,-68.75)" fill="blue" text-rendering="geometricPrecision" shape-rendering="geometricPrecision" stroke="blue" stroke-width="3" stroke-miterlimit="1.45">
      <circle fill="none" r="15" clip-path="url(#clipPath2)" cx="230.5" cy="299.2"/>
    </g>
    <g fill="lime" text-rendering="geometricPrecision" shape-rendering="geometricPrecision" transform="matrix(1.25,0,0,1.25,-48.75,-68.75)" stroke="lime">
      <circle r="15" clip-path="url(#clipPath2)" cx="371" cy="299.2" stroke="none"/>
    </g>
    <g stroke-linecap="butt" transform="matrix(1.25,0,0,1.25,-48.75,-68.75)" fill="blue" text-rendering="geometricPrecision" shape-rendering="geometricPrecision" stroke="blue" stroke-width="3" stroke-miterlimit="1.45">
      <circle fill="none" r="15" clip-path="url(#clipPath2)" cx="371" cy="299.2"/>
    </g>
    <g fill="lime" text-rendering="geometricPrecision" shape-rendering="geometricPrecision" transform="matrix(1.25,0,0,1.25,-48.75,-68.75)" stroke="lime">
      <circle r="15" clip-path="url(#clipPath2)" cx="511.5" cy="299.2" stroke="none"/>
    </g>
    <g stroke-linecap="butt" transform="matrix(1.25,0,0,1.25,-48.75,-68.75)" fill="blue" text-rendering="geometricPrecision" shape-rendering="geometricPrecision" stroke="blue" stroke-width="3" stroke-miterlimit="1.45">
      <circle fill="none" r="15" clip-path="url(#clipPath2)" cx="511.5" cy="299.2"/>
      <path fill="none" d="M90 144.375 L90 284.2" stroke-width="2" clip-path="url(#clipPath2)" stroke="black"/>
      <path fill="black" d="M90 132 L83.25 145.5 L96.75 145.5 Z" stroke-width="2" clip-path="url(#clipPath2)" stroke="none"/>
      <path fill="none" d="M213.7833 138.6782 L99.1598 287.3216" stroke-width="2" clip-path="url(#clipPath2)" stroke="black"/>
      <path fill="black" d="M221.3402 128.8784 L207.751 135.4471 L218.4416 143.691 Z" stroke-width="2" clip-path="url(#clipPath2)" stroke="none"/>
      <path fill="none" d="M348.0308 131.8932 L102.5859 291.0393" stroke-width="2" clip-path="url(#clipPath2)" stroke="black"/>
      <path fill="black" d="M358.4142 125.1607 L343.4146 126.8416 L350.7592 138.1689 Z" stroke-width="2" clip-path="url(#clipPath2)" stroke="none"/>
      <path fill="none" d="M486.5195 128.1967 L105 299.2" stroke-width="2" clip-path="url(#clipPath2)" stroke="black"/>
      <path fill="black" d="M497.812 123.1352 L482.7321 122.4972 L488.2537 134.8164 Z" stroke-width="2" clip-path="url(#clipPath2)" stroke="none"/>
      <path fill="none" d="M230.5 144.375 L230.5 284.2066" stroke-width="2" clip-path="url(#clipPath2)" stroke="black"/>
      <path fill="black" d="M230.5 132 L223.75 145.5 L237.25 145.5 Z" stroke-width="2" clip-path="url(#clipPath2)" stroke="none"/>
      <path fill="none" d="M105.8713 139.3045 L216.2691 294.45" stroke-width="2" clip-path="url(#clipPath2)" stroke="black"/>
      <path fill="black" d="M98.6966 129.2216 L101.0239 144.1346 L112.0233 136.3076 Z" stroke-width="2" clip-path="url(#clipPath2)" stroke="none"/>
      <path fill="none" d="M354.2833 138.6782 L239.6598 287.3216" stroke-width="2" clip-path="url(#clipPath2)" stroke="black"/>
      <path fill="black" d="M361.8402 128.8785 L348.251 135.4471 L358.9416 143.691 Z" stroke-width="2" clip-path="url(#clipPath2)" stroke="none"/>
      <path fill="none" d="M488.5308 131.8932 L243.0859 291.0393" stroke-width="2" clip-path="url(#clipPath2)" stroke="black"/>
      <path fill="black" d="M498.9142 125.1607 L483.9146 126.8416 L491.2592 138.1689 Z" stroke-width="2" clip-path="url(#clipPath2)" stroke="none"/>
      <path fill="none" d="M371 144.375 L371 284.2" stroke-width="2" clip-path="url(#clipPath2)" stroke="black"/>
      <path fill="black" d="M371 132 L364.25 145.5 L377.75 145.5 Z" stroke-width="2" clip-path="url(#clipPath2)" stroke="none"/>
      <path fill="none" d="M112.9692 131.8932 L358.4142 291.0393" stroke-width="2" clip-path="url(#clipPath2)" stroke="black"/>
      <path fill="black" d="M102.5859 125.1607 L110.2408 138.1689 L117.5854 126.8416 Z" stroke-width="2" clip-path="url(#clipPath2)" stroke="none"/>
      <path fill="none" d="M247.2167 138.6782 L361.8402 287.3216" stroke-width="2" clip-path="url(#clipPath2)" stroke="black"/>
      <path fill="black" d="M239.6598 128.8784 L242.5584 143.691 L253.249 135.4471 Z" stroke-width="2" clip-path="url(#clipPath2)" stroke="none"/>
      <path fill="none" d="M494.7833 138.6782 L380.1598 287.3216" stroke-width="2" clip-path="url(#clipPath2)" stroke="black"/>
      <path fill="black" d="M502.3402 128.8785 L488.751 135.4471 L499.4416 143.691 Z" stroke-width="2" clip-path="url(#clipPath2)" stroke="none"/>
      <path fill="none" d="M511.5 144.375 L511.5 284.2" stroke-width="2" clip-path="url(#clipPath2)" stroke="black"/>
      <path fill="black" d="M511.5 132 L504.75 145.5 L518.25 145.5 Z" stroke-width="2" clip-path="url(#clipPath2)" stroke="none"/>
      <path fill="none" d="M115.1279 127.8619 L497.7313 293.2483" stroke-width="2" clip-path="url(#clipPath2)" stroke="black"/>
      <path fill="black" d="M103.7687 122.9517 L113.4822 134.5042 L118.8388 122.1124 Z" stroke-width="2" clip-path="url(#clipPath2)" stroke="none"/>
      <path fill="none" d="M253.6869 131.5519 L502.1225 287.4685" stroke-width="2" clip-path="url(#clipPath2)" stroke="black"/>
      <path fill="black" d="M243.2051 124.9737 L251.0516 137.8673 L258.2279 126.4327 Z" stroke-width="2" clip-path="url(#clipPath2)" stroke="none"/>
      <path fill="none" d="M388.4272 138.1112 L509.1822 284.3922" stroke-width="2" clip-path="url(#clipPath2)" stroke="black"/>
      <path fill="black" d="M380.5492 128.5677 L383.938 143.2759 L394.3489 134.6816 Z" stroke-width="2" clip-path="url(#clipPath2)" stroke="none"/>
    </g>
  </g>
</svg>
