<?xml version="1.0" encoding="UTF-8" standalone="no"?>
<!-- Created with Inkscape (http://www.inkscape.org/) -->

<svg
   width="210mm"
   height="297mm"
   viewBox="0 0 210 297"
   version="1.1"
   id="svg5"
   xml:space="preserve"
   inkscape:version="1.2.2 (1:1.2.2+202212051550+b0a8486541)"
   sodipodi:docname="neo-neocortex.svg"
   inkscape:export-filename="neo-neocortex.png"
   inkscape:export-xdpi="192"
   inkscape:export-ydpi="192"
   xmlns:inkscape="http://www.inkscape.org/namespaces/inkscape"
   xmlns:sodipodi="http://sodipodi.sourceforge.net/DTD/sodipodi-0.dtd"
   xmlns="http://www.w3.org/2000/svg"
   xmlns:svg="http://www.w3.org/2000/svg"><sodipodi:namedview
     id="namedview7"
     pagecolor="#ffffff"
     bordercolor="#cccccc"
     borderopacity="1"
     inkscape:showpageshadow="0"
     inkscape:pageopacity="1"
     inkscape:pagecheckerboard="0"
     inkscape:deskcolor="#d1d1d1"
     inkscape:document-units="mm"
     showgrid="false"
     inkscape:zoom="1"
     inkscape:cx="432"
     inkscape:cy="515.5"
     inkscape:window-width="1080"
     inkscape:window-height="1895"
     inkscape:window-x="0"
     inkscape:window-y="0"
     inkscape:window-maximized="1"
     inkscape:current-layer="layer1" /><defs
     id="defs2" /><g
     inkscape:label="Layer 1"
     inkscape:groupmode="layer"
     id="layer1"><path
       style="fill:#f4e3d7;stroke:#000000;stroke-width:0.661458;stroke-linecap:round;stroke-linejoin:miter;stroke-dasharray:none;stroke-opacity:1"
       d="m 94.320639,205.2579 c 0,0 -3.361352,-7.418 -6.718659,-9.18206 -4.953126,-2.60256 -11.344956,0.8557 -16.778928,-0.47799 -3.004117,-0.73731 -6.569433,-1.52703 -8.344355,-4.06041 -1.520249,-2.16988 -0.04341,-5.37446 -0.827942,-7.90508 -0.742834,-2.39613 -3.803322,-4.11648 -3.587501,-6.61581 0.104539,-1.21063 2.270359,-1.64414 2.261332,-2.85924 -0.01785,-2.40309 -4.293863,-3.19879 -4.555738,-5.58763 -0.21881,-1.99601 3.406653,-1.91379 2.7047,-3.79506 -1.384011,-3.70922 -12.371781,-1.14157 -10.981123,-5.58375 1.664307,-5.3163 9.791547,-11.29096 10.90867,-20.22741 0.493572,-3.94834 -1.154108,-11.73645 -1.0311,-15.71362 0.153379,-4.95915 1.825243,-9.99644 4.459737,-14.20074 4.681988,-7.47182 11.454961,-14.025532 19.254433,-18.13861 8.381228,-4.419869 18.311178,-5.527802 27.771185,-6.06493 7.28226,-0.413478 14.95995,-0.395811 21.76917,2.218899 6.45069,2.477033 12.17141,7.047832 16.72957,12.241117 5.33857,6.082424 9.61266,13.462004 11.67425,21.287994 2.09164,7.94006 2.44545,16.69586 0.33359,24.63057 -1.95586,7.34858 -8.11789,12.88303 -11.60741,19.63952 -2.8925,5.60053 -5.46557,10.99956 -6.11777,17.2691 -0.39127,3.76123 -0.52773,7.55033 0.80369,11.08972 1.27577,3.39145 3.69282,7.38511 3.69282,7.38511"
       id="path242"
       sodipodi:nodetypes="csssssssssssssssssssssc" /><path
       style="fill:#00ccff;stroke:#000000;stroke-width:0.132292;stroke-linecap:butt;stroke-linejoin:miter;stroke-dasharray:none;stroke-opacity:1"
       d="m 116.31389,203.35868 c 0,0 -7.7406,-14.37063 -9.20989,-19.67561 -1.08187,-3.90619 -1.30465,-8.05222 -1.17057,-12.10324 0.13768,-4.15966 1.92511,-8.16031 2.0211,-12.32114 0.0502,-2.17839 0.41002,-4.65415 -0.75955,-6.49263 -0.87626,-1.37742 -2.61127,-2.07525 -4.16479,-2.57693 -3.55409,-1.14773 -7.698993,0.57152 -11.176502,-0.79074 -1.833079,-0.71808 -3.664113,-1.96748 -4.60693,-3.69575 -0.755776,-1.38541 -0.792928,-3.15963 -0.491961,-4.70881 0.358316,-1.84438 2.171552,-3.16001 2.642116,-4.97899 0.376598,-1.45575 0.820738,-3.19994 0.08311,-4.51026 -1.937389,-3.44157 -6.896857,-3.85734 -10.241105,-5.95827 -3.26257,-2.04962 -7.292821,-3.37216 -9.573138,-6.47787 -1.547896,-2.10818 -2.069654,-4.90767 -2.249424,-7.5169 -0.136455,-1.98055 -0.02817,-4.13575 0.908791,-5.88598 1.73083,-3.23318 5.045498,-5.42323 8.117477,-7.426262 2.920026,-1.903955 6.284727,-3.051838 9.571532,-4.213092 4.602333,-1.626041 10.659991,-2.939193 14.133814,-3.829434 3.47383,-0.890243 11.44301,-1.840805 17.16968,-1.41355 3.83792,0.28634 7.66393,1.219063 11.23887,2.644349 3.33257,1.328654 6.51453,3.157121 9.29905,5.419363 2.59168,2.105566 4.86999,4.651866 6.70955,7.438666 1.80958,2.74137 3.15333,5.81019 4.13458,8.94497 0.98495,3.14657 1.84919,6.44827 1.70997,9.74245 -0.15238,3.6055 -0.97938,7.33099 -2.76458,10.46721 -1.86402,3.2747 -4.88999,5.8273 -7.92373,8.06217 -3.03699,2.23725 -7.31384,2.59658 -10.05946,5.18311 -2.04409,1.92565 -3.64791,4.51389 -4.29839,7.24579 -0.21191,0.88997 -0.57932,2.23741 0.18627,2.73823 0.95029,0.62164 2.27351,-0.50289 3.20676,-1.14984 2.06936,-1.43454 3.10983,-3.97564 4.88224,-5.76414 1.20998,-1.22096 2.26873,-2.84091 3.90475,-3.36839 1.56508,-0.50461 3.44309,-0.30136 4.91416,0.43353 2.16374,1.08092 3.68907,3.27497 4.85074,5.39645 0.99314,1.81371 2.11249,3.96293 1.65325,5.97911 -0.35256,1.54781 -1.74344,2.81814 -3.13191,3.58766 -2.21924,1.22995 -5.00294,-0.20421 -7.51578,0.14714 -1.41612,0.19801 -2.9846,0.9192 -4.25945,1.56678 -2.65287,1.34757 -4.09486,4.31922 -6.08209,6.53385 -1.72561,1.92306 -3.93543,3.54174 -5.07056,5.86281 -1.30529,2.66901 -1.68547,5.77094 -1.74143,8.7415 -0.0849,4.5056 3.1984,18.11124 3.1984,18.11124"
       id="path1017"
       sodipodi:nodetypes="cssssssssssssssssssssssssssssssssssssssssc" /><path
       style="fill:#37abc8;stroke:#000000;stroke-width:0.132292;stroke-linecap:butt;stroke-linejoin:miter;stroke-dasharray:none;stroke-opacity:1"
       d="m 118.21329,202.67071 c 0,0 -4.50053,-9.80379 -5.41757,-12.68631 -0.59634,-1.87447 -1.04689,-3.79618 -1.42412,-5.72671 -0.59849,-3.06284 -1.22191,-6.14879 -1.32692,-9.26779 -0.098,-2.91124 0.48607,-5.80612 0.6539,-8.71417 0.15059,-2.60936 0.33779,-5.2211 0.31667,-7.83472 -0.0211,-2.60983 0.60525,-5.42689 -0.44262,-7.81721 -0.67696,-1.54422 -2.15957,-2.63664 -3.52028,-3.63231 -1.3541,-0.99083 -3.28863,-1.0897 -4.50518,-2.24526 -1.01321,-0.96241 -1.61827,-2.32541 -2.06034,-3.65108 -0.4148,-1.2439 -0.78315,-2.61807 -0.509891,-3.90052 0.244071,-1.14544 1.176711,-2.02762 1.836021,-2.99556 0.55385,-0.81311 1.84806,-1.3754 1.7769,-2.35664 -0.0731,-1.0083 -1.37214,-1.49464 -2.15617,-2.13286 -1.13687,-0.92544 -2.471788,-1.57932 -3.662813,-2.43394 -1.416735,-1.01658 -3.328577,-1.65586 -4.137982,-3.20035 -0.61507,-1.17366 -0.696337,-2.7369 -0.210349,-3.96962 0.677783,-1.71922 2.402105,-2.90536 3.99244,-3.8466 1.962659,-1.1616 4.276314,-1.70041 6.532264,-2.03511 2.42028,-0.35908 4.90076,-0.13588 7.34011,0.0546 3.11869,0.24353 6.29326,0.46216 9.28137,1.38776 2.66546,0.82566 5.12286,2.24626 7.52924,3.65895 2.02855,1.19088 4.34382,2.18113 5.78678,4.03884 1.27273,1.63855 1.73679,3.80183 2.18885,5.82675 0.31875,1.42779 0.81016,2.98594 0.35049,4.37478 -0.2774,0.83813 -0.96772,1.5736 -1.74481,1.99257 -2.0345,1.09691 -4.56658,0.74393 -6.86878,0.94952 -1.62473,0.14509 -3.34287,-0.31889 -4.88953,0.19944 -1.28108,0.42933 -2.63731,1.14954 -3.33165,2.30858 -0.72044,1.2026 -0.37904,2.77989 -0.48105,4.17806 -0.085,1.16443 -0.28285,2.34643 -0.10866,3.50089 0.22434,1.48684 1.04121,2.82382 1.46407,4.2668 0.49809,1.6997 0.5318,3.54761 1.26092,5.16175 0.38936,0.86198 0.84683,1.78705 1.62309,2.32745 0.56191,0.39118 1.30326,0.50692 1.98785,0.51701 0.92084,0.0136 1.8708,-0.20185 2.69321,-0.61631 1.25528,-0.63261 2.27976,-1.68341 3.20171,-2.74451 0.69133,-0.79566 0.88216,-2.00287 1.70255,-2.66467 1.19099,-0.96077 2.78634,-1.4 4.30378,-1.59728 1.13747,-0.14788 2.40741,-0.1967 3.42503,0.3326 0.80408,0.41823 1.43764,1.22132 1.76895,2.06494 0.40014,1.01887 0.45327,2.23493 0.13163,3.28124 -0.29158,0.94854 -0.96073,1.81915 -1.76964,2.39396 -0.98846,0.7024 -2.29855,0.78137 -3.47386,1.07982 -1.1117,0.2823 -2.33578,0.18485 -3.37509,0.67004 -0.91938,0.4292 -1.54244,1.32327 -2.3715,1.90819 -1.84547,1.30202 -4.02292,2.11985 -5.77183,3.54895 -1.78255,1.4566 -3.43249,3.13381 -4.71681,5.04422 -1.18671,1.76521 -2.12862,3.73845 -2.67101,5.79516 -0.63508,2.40819 -0.70427,4.95608 -0.62546,7.44536 0.0686,2.16816 0.50993,4.31411 0.95388,6.43744 0.47744,2.28348 3.4213,10.98738 3.4213,10.98738"
       id="path1021"
       sodipodi:nodetypes="cssssssssssssssssssssssssssssssssssssssssssssssssssc" /><path
       style="fill:#216778;stroke:#000000;stroke-width:0.132292;stroke-linecap:butt;stroke-linejoin:miter;stroke-dasharray:none;stroke-opacity:1"
       d="m 119.2631,202.1897 c 0,0 -3.94264,-8.18603 -4.48218,-10.5342 -0.85483,-3.72041 -1.29112,-7.55516 -1.35148,-11.37204 -0.0703,-4.44413 0.8819,-8.84768 1.15413,-13.28403 0.19326,-3.14932 0.6873,-6.32358 0.33986,-9.45964 -0.4397,-3.96876 -1.75496,-7.80636 -3.04012,-11.58694 -1.26711,-3.7275 -3.40658,-7.12808 -4.58603,-10.88423 -0.52912,-1.68506 -1.45214,-3.45106 -1.10318,-5.18242 0.19242,-0.95467 0.99853,-1.69131 1.66774,-2.39882 1.08332,-1.14532 2.20445,-2.5031 3.72714,-2.91146 1.27771,-0.34266 2.70818,0.0438 3.93025,0.5503 1.61118,0.66774 3.35979,1.61117 4.17578,3.15258 0.73948,1.39687 0.52581,3.18217 0.2352,4.73576 -0.27733,1.48261 -0.87373,2.97693 -1.84288,4.13269 -0.84733,1.01049 -2.67812,1.04149 -3.27709,2.21635 -0.85773,1.68241 -0.0952,3.79511 0.18804,5.66219 0.29858,1.9683 0.83805,3.91239 1.58091,5.75942 0.96644,2.40293 2.35252,4.62087 3.70397,6.83032 0.72686,1.18833 1.07877,2.90736 2.36313,3.44669 1.26818,0.53253 2.76935,-0.2514 4.06357,-0.71708 1.24246,-0.44705 2.34827,-1.22006 3.44534,-1.95491 1.43868,-0.96366 2.54985,-2.4115 4.09023,-3.20249 0.79228,-0.40684 1.70059,-0.96662 2.56448,-0.75 0.67875,0.1702 1.27023,0.80875 1.49847,1.47025 0.26262,0.76112 0.15698,1.742 -0.31411,2.39496 -0.6392,0.88597 -1.89073,1.15961 -2.94943,1.42921 -1.12427,0.2863 -2.40607,-0.28207 -3.47654,0.1652 -1.04361,0.43605 -1.62479,1.57731 -2.49636,2.29816 -1.62151,1.34112 -3.54772,2.30805 -5.07103,3.75975 -1.5415,1.46903 -2.89048,3.15474 -4.04716,4.94258 -1.2396,1.91601 -2.43428,3.93095 -3.05382,6.12728 -0.5006,1.77467 -0.39399,3.66886 -0.48346,5.51061 -0.0983,2.02398 -0.37183,4.07686 -0.0582,6.07881 0.51719,3.30135 4.21533,13.21893 4.21533,13.21893"
       id="path1019"
       sodipodi:nodetypes="cssssssssssssssssssssssssssssssssc" /><text
       xml:space="preserve"
       style="font-weight:300;font-size:6.35px;line-height:1.25;font-family:'Alibaba PuHuiTi';-inkscape-font-specification:'Alibaba PuHuiTi, Light';letter-spacing:0px;word-spacing:0px;stroke-width:0.264583"
       x="93.676445"
       y="105.22725"
       id="text1077"><tspan
         sodipodi:role="line"
         id="tspan1075"
         style="font-style:normal;font-variant:normal;font-weight:500;font-stretch:normal;font-family:'Alibaba PuHuiTi';-inkscape-font-specification:'Alibaba PuHuiTi Medium';stroke-width:0.264583"
         x="93.676445"
         y="105.22725">Neocortex</tspan></text><text
       xml:space="preserve"
       style="font-weight:300;font-size:6.35px;line-height:1.25;font-family:'Alibaba PuHuiTi';-inkscape-font-specification:'Alibaba PuHuiTi, Light';letter-spacing:0px;word-spacing:0px;stroke-width:0.264583"
       x="101.72219"
       y="122.3968"
       id="text1077-3"><tspan
         sodipodi:role="line"
         id="tspan1075-6"
         style="font-style:normal;font-variant:normal;font-weight:500;font-stretch:normal;font-family:'Alibaba PuHuiTi';-inkscape-font-specification:'Alibaba PuHuiTi Medium';stroke-width:0.264583"
         x="101.72219"
         y="122.3968">Limbic</tspan></text><path
       style="fill:#aaeeff;stroke:#000000;stroke-width:0.132292;stroke-linecap:butt;stroke-linejoin:miter;stroke-dasharray:none;stroke-opacity:1"
       d="M 77.406917,89.079783 C 68.573541,93.673801 62.190238,102.35859 56.886553,110.785 c -1.410578,2.24111 -1.377553,5.21288 -2.84448,7.41752 -0.8661,1.30166 -1.877784,3.63442 -3.390862,3.24068 -7.748221,-2.0163 -6.676296,-14.95752 -7.07233,-22.953989 -0.330671,-6.676718 1.478924,-13.456903 3.982451,-19.655311 2.316733,-5.735929 5.566838,-11.311719 9.98056,-15.646139 6.004562,-5.896676 13.462036,-10.78899 21.528132,-13.189748 16.284122,-4.846735 34.526756,-5.827806 50.949036,-1.472084 15.08586,4.00126 31.23451,11.443298 39.98048,24.370057 9.50622,14.050422 9.20787,33.244494 8.42356,50.190504 -0.2014,4.35146 -1.01732,8.95065 -3.34424,12.63321 -1.27395,2.01615 -3.09466,4.32275 -5.4606,4.62301 -1.26714,0.16081 -2.6429,-0.67722 -3.45035,-1.66694 -3.38091,-4.14411 -2.32094,-10.45607 -3.93694,-15.55438 -2.17813,-6.87176 -3.32737,-14.49308 -7.73961,-20.19374 -7.33245,-9.473616 -17.38402,-19.306005 -29.26181,-20.865638 -16.61609,-2.181805 -33.528589,-0.416205 -47.822633,7.017771 z"
       id="path1106"
       sodipodi:nodetypes="aaaaaaaaaaaaaaaasa" /><text
       xml:space="preserve"
       style="font-weight:300;font-size:6.35px;line-height:1.25;font-family:'Alibaba PuHuiTi';-inkscape-font-specification:'Alibaba PuHuiTi, Light';letter-spacing:0px;word-spacing:0px;stroke-width:0.264583"
       x="88.457634"
       y="68.582146"
       id="text1077-7"><tspan
         sodipodi:role="line"
         id="tspan1075-5"
         style="font-style:normal;font-variant:normal;font-weight:500;font-stretch:normal;font-family:'Alibaba PuHuiTi';-inkscape-font-specification:'Alibaba PuHuiTi Medium';stroke-width:0.264583"
         x="88.457634"
         y="68.582146">Neo-neocortex</tspan></text></g></svg>
