<?xml version="1.0" encoding="UTF-8" standalone="no"?>
<!-- Created with Inkscape (http://www.inkscape.org/) -->

<svg
   width="210mm"
   height="297mm"
   viewBox="0 0 210 297"
   version="1.1"
   id="svg5"
   sodipodi:docname="Transformer-Hopfield-Boltzmann.svg"
   inkscape:version="1.2.2 (1:1.2.2+202212051550+b0a8486541)"
   xmlns:inkscape="http://www.inkscape.org/namespaces/inkscape"
   xmlns:sodipodi="http://sodipodi.sourceforge.net/DTD/sodipodi-0.dtd"
   xmlns="http://www.w3.org/2000/svg"
   xmlns:svg="http://www.w3.org/2000/svg">
  <sodipodi:namedview
     id="namedview7"
     pagecolor="#ffffff"
     bordercolor="#cccccc"
     borderopacity="1"
     inkscape:showpageshadow="0"
     inkscape:pageopacity="1"
     inkscape:pagecheckerboard="0"
     inkscape:deskcolor="#d1d1d1"
     inkscape:document-units="mm"
     showgrid="false"
     inkscape:zoom="0.93806818"
     inkscape:cx="396.55966"
     inkscape:cy="562.32586"
     inkscape:window-width="1080"
     inkscape:window-height="1895"
     inkscape:window-x="0"
     inkscape:window-y="0"
     inkscape:window-maximized="1"
     inkscape:current-layer="layer1" />
  <defs
     id="defs2" />
  <g
     inkscape:label="Layer 1"
     inkscape:groupmode="layer"
     id="layer1">
    <path
       id="rect1287"
       style="fill:none;fill-opacity:0;stroke:#ff0000;stroke-width:0.264583;stop-color:#000000"
       d="m 82.537591,208.06517 v -2.04792 h 16.707136 v 2.04792"
       sodipodi:nodetypes="cccc" />
    <g
       inkscape:label=""
       transform="translate(33.596023,170.4011)"
       id="g68">
      <g
         id="surface1"
         transform="matrix(0.705556,0,0,0.705556,-171.705,-57.8236)">
        <g
           style="fill:#000000;fill-opacity:1"
           id="g86">
          <g
             id="use84"
             transform="translate(242.72099,96.408997)">
            <path
               style="stroke:none"
               d="m 6.28125,-6.34375 c 0.078125,-0.125 0.078125,-0.140625 0.078125,-0.25 0,-0.25 -0.109375,-0.25 -0.3125,-0.25 h -5.125 l -0.125,2.40625 h 0.46875 C 1.34375,-5.765625 2.015625,-6.375 3.40625,-6.375 H 4.703125 L 0.71875,-0.515625 C 0.640625,-0.40625 0.640625,-0.375 0.640625,-0.265625 0.640625,0 0.734375,0 0.953125,0 H 6.25 L 6.4375,-2.828125 H 5.96875 c -0.09375,1.109375 -0.234375,2.3125 -2.265625,2.3125 h -1.40625 z m 0,0"
               id="path155" />
          </g>
        </g>
        <g
           style="fill:#000000;fill-opacity:1"
           id="g90">
          <g
             id="use88"
             transform="translate(252.49001,96.408997)">
            <path
               style="stroke:none"
               d="m 6.84375,-3.265625 c 0.15625,0 0.34375,0 0.34375,-0.1875 C 7.1875,-3.65625 7,-3.65625 6.859375,-3.65625 h -5.96875 c -0.140625,0 -0.328125,0 -0.328125,0.203125 0,0.1875 0.1875,0.1875 0.328125,0.1875 z m 0.015625,1.9375 c 0.140625,0 0.328125,0 0.328125,-0.203125 0,-0.1875 -0.1875,-0.1875 -0.34375,-0.1875 H 0.890625 c -0.140625,0 -0.328125,0 -0.328125,0.1875 0,0.203125 0.1875,0.203125 0.328125,0.203125 z m 0,0"
               id="path159" />
          </g>
        </g>
        <g
           style="fill:#000000;fill-opacity:1"
           id="g106">
          <g
             id="use92"
             transform="translate(263.00851,96.408997)">
            <path
               style="stroke:none"
               d="m 2.078125,-1.9375 c 0.21875,0.046875 1.03125,0.203125 1.03125,0.921875 0,0.5 -0.34375,0.90625 -1.125,0.90625 -0.84375,0 -1.203125,-0.5625 -1.390625,-1.421875 C 0.5625,-1.65625 0.5625,-1.6875 0.453125,-1.6875 c -0.125,0 -0.125,0.0625 -0.125,0.234375 V -0.125 c 0,0.171875 0,0.234375 0.109375,0.234375 0.046875,0 0.0625,-0.015625 0.25,-0.203125 0.015625,-0.015625 0.015625,-0.03125 0.203125,-0.21875 0.4375,0.40625 0.890625,0.421875 1.09375,0.421875 1.140625,0 1.609375,-0.671875 1.609375,-1.390625 0,-0.515625 -0.296875,-0.828125 -0.421875,-0.9375 C 2.84375,-2.546875 2.453125,-2.625 2.03125,-2.703125 1.46875,-2.8125 0.8125,-2.9375 0.8125,-3.515625 c 0,-0.359375 0.25,-0.765625 1.109375,-0.765625 1.09375,0 1.15625,0.90625 1.171875,1.203125 0,0.09375 0.09375,0.09375 0.109375,0.09375 0.140625,0 0.140625,-0.046875 0.140625,-0.234375 v -1.015625 c 0,-0.15625 0,-0.234375 -0.109375,-0.234375 -0.046875,0 -0.078125,0 -0.203125,0.125 -0.03125,0.03125 -0.125,0.125 -0.171875,0.15625 -0.375,-0.28125 -0.78125,-0.28125 -0.9375,-0.28125 -1.21875,0 -1.59375,0.671875 -1.59375,1.234375 0,0.34375 0.15625,0.625 0.421875,0.84375 0.328125,0.25 0.609375,0.3125 1.328125,0.453125 z m 0,0"
               id="path163" />
          </g>
          <g
             id="use94"
             transform="translate(266.93777,96.408997)">
            <path
               style="stroke:none"
               d="M 4.6875,-2.140625 C 4.6875,-3.40625 3.703125,-4.46875 2.5,-4.46875 c -1.25,0 -2.21875,1.09375 -2.21875,2.328125 0,1.296875 1.03125,2.25 2.203125,2.25 1.203125,0 2.203125,-0.984375 2.203125,-2.25 z m -2.1875,2 c -0.4375,0 -0.875,-0.203125 -1.140625,-0.671875 -0.25,-0.4375 -0.25,-1.046875 -0.25,-1.40625 0,-0.390625 0,-0.921875 0.234375,-1.359375 C 1.609375,-4.03125 2.078125,-4.25 2.484375,-4.25 c 0.4375,0 0.859375,0.21875 1.125,0.65625 0.265625,0.421875 0.265625,1 0.265625,1.375 0,0.359375 0,0.90625 -0.21875,1.34375 C 3.421875,-0.421875 2.984375,-0.140625 2.5,-0.140625 Z m 0,0"
               id="path167" />
          </g>
          <g
             id="use96"
             transform="translate(271.91907,96.408997)">
            <path
               style="stroke:none"
               d="m 1.75,-4.296875 v -1.15625 c 0,-0.875 0.46875,-1.359375 0.90625,-1.359375 0.03125,0 0.1875,0 0.328125,0.078125 C 2.875,-6.703125 2.6875,-6.5625 2.6875,-6.3125 c 0,0.21875 0.15625,0.421875 0.4375,0.421875 0.28125,0 0.4375,-0.203125 0.4375,-0.4375 0,-0.375 -0.375,-0.703125 -0.90625,-0.703125 -0.6875,0 -1.546875,0.53125 -1.546875,1.59375 v 1.140625 h -0.78125 v 0.3125 h 0.78125 V -0.75 C 1.109375,-0.3125 1,-0.3125 0.34375,-0.3125 V 0 c 0.390625,-0.015625 0.859375,-0.03125 1.125,-0.03125 0.40625,0 0.875,0 1.265625,0.03125 V -0.3125 H 2.53125 c -0.734375,0 -0.75,-0.109375 -0.75,-0.46875 v -3.203125 h 1.125 v -0.3125 z m 0,0"
               id="path171" />
          </g>
          <g
             id="use98"
             transform="translate(274.96362,96.408997)">
            <path
               style="stroke:none"
               d="m 1.71875,-3.984375 h 1.4375 v -0.3125 H 1.71875 V -6.125 h -0.25 c 0,0.8125 -0.296875,1.875 -1.28125,1.921875 v 0.21875 h 0.84375 v 2.75 c 0,1.21875 0.9375,1.34375 1.296875,1.34375 0.703125,0 0.984375,-0.703125 0.984375,-1.34375 v -0.5625 h -0.25 V -1.25 c 0,0.734375 -0.296875,1.109375 -0.671875,1.109375 -0.671875,0 -0.671875,-0.90625 -0.671875,-1.078125 z m 0,0"
               id="path175" />
          </g>
          <g
             id="use100"
             transform="translate(278.83807,96.408997)">
            <path
               style="stroke:none"
               d="M 1.09375,-3.421875 V -0.75 c 0,0.4375 -0.109375,0.4375 -0.78125,0.4375 V 0 c 0.359375,-0.015625 0.859375,-0.03125 1.140625,-0.03125 0.25,0 0.765625,0.015625 1.109375,0.03125 v -0.3125 c -0.671875,0 -0.78125,0 -0.78125,-0.4375 V -2.59375 C 1.78125,-3.625 2.5,-4.1875 3.125,-4.1875 c 0.640625,0 0.75,0.53125 0.75,1.109375 V -0.75 c 0,0.4375 -0.109375,0.4375 -0.78125,0.4375 V 0 c 0.34375,-0.015625 0.859375,-0.03125 1.125,-0.03125 0.25,0 0.78125,0.015625 1.109375,0.03125 v -0.3125 c -0.65625,0 -0.765625,0 -0.765625,-0.4375 v -1.84375 c 0,-1.03125 0.703125,-1.59375 1.34375,-1.59375 0.625,0 0.734375,0.53125 0.734375,1.109375 V -0.75 c 0,0.4375 -0.109375,0.4375 -0.78125,0.4375 V 0 c 0.34375,-0.015625 0.859375,-0.03125 1.125,-0.03125 0.265625,0 0.78125,0.015625 1.125,0.03125 v -0.3125 c -0.515625,0 -0.765625,0 -0.78125,-0.296875 v -1.90625 c 0,-0.859375 0,-1.15625 -0.3125,-1.515625 -0.140625,-0.171875 -0.46875,-0.375 -1.046875,-0.375 -0.828125,0 -1.28125,0.59375 -1.4375,0.984375 C 4.390625,-4.296875 3.65625,-4.40625 3.203125,-4.40625 2.46875,-4.40625 2,-3.984375 1.71875,-3.359375 V -4.40625 L 0.3125,-4.296875 v 0.3125 c 0.703125,0 0.78125,0.0625 0.78125,0.5625 z m 0,0"
               id="path179" />
          </g>
          <g
             id="use102"
             transform="translate(287.13992,96.408997)">
            <path
               style="stroke:none"
               d="m 3.3125,-0.75 c 0.046875,0.390625 0.3125,0.8125 0.78125,0.8125 0.21875,0 0.828125,-0.140625 0.828125,-0.953125 v -0.5625 h -0.25 v 0.5625 c 0,0.578125 -0.25,0.640625 -0.359375,0.640625 -0.328125,0 -0.375,-0.453125 -0.375,-0.5 v -1.984375 c 0,-0.421875 0,-0.8125 -0.359375,-1.1875 C 3.1875,-4.3125 2.6875,-4.46875 2.21875,-4.46875 c -0.828125,0 -1.515625,0.46875 -1.515625,1.125 0,0.296875 0.203125,0.46875 0.46875,0.46875 0.28125,0 0.453125,-0.203125 0.453125,-0.453125 0,-0.125 -0.046875,-0.453125 -0.515625,-0.453125 C 1.390625,-4.140625 1.875,-4.25 2.1875,-4.25 c 0.5,0 1.0625,0.390625 1.0625,1.28125 v 0.359375 c -0.515625,0.03125 -1.203125,0.0625 -1.828125,0.359375 -0.75,0.34375 -1,0.859375 -1,1.296875 0,0.8125 0.96875,1.0625 1.59375,1.0625 0.65625,0 1.109375,-0.40625 1.296875,-0.859375 z M 3.25,-2.390625 v 1 c 0,0.9375 -0.71875,1.28125 -1.171875,1.28125 -0.484375,0 -0.890625,-0.34375 -0.890625,-0.84375 0,-0.546875 0.421875,-1.375 2.0625,-1.4375 z m 0,0"
               id="path183" />
          </g>
          <g
             id="use104"
             transform="translate(292.12122,96.408997)">
            <path
               style="stroke:none"
               d="M 2.859375,-2.34375 C 3.15625,-2.71875 3.53125,-3.203125 3.78125,-3.46875 4.09375,-3.828125 4.5,-3.984375 4.96875,-3.984375 v -0.3125 c -0.265625,0.015625 -0.5625,0.03125 -0.828125,0.03125 -0.296875,0 -0.828125,-0.015625 -0.953125,-0.03125 v 0.3125 c 0.21875,0.015625 0.296875,0.140625 0.296875,0.3125 0,0.15625 -0.109375,0.28125 -0.15625,0.34375 L 2.71875,-2.546875 1.9375,-3.5625 C 1.84375,-3.65625 1.84375,-3.671875 1.84375,-3.734375 c 0,-0.15625 0.15625,-0.25 0.34375,-0.25 v -0.3125 c -0.25,0.015625 -0.90625,0.03125 -1.078125,0.03125 -0.203125,0 -0.671875,-0.015625 -0.9375,-0.03125 v 0.3125 c 0.703125,0 0.703125,0 1.171875,0.609375 l 0.984375,1.28125 -0.9375,1.1875 C 0.921875,-0.328125 0.328125,-0.3125 0.125,-0.3125 V 0 c 0.25,-0.015625 0.5625,-0.03125 0.828125,-0.03125 0.28125,0 0.703125,0.015625 0.9375,0.03125 v -0.3125 c -0.21875,-0.03125 -0.28125,-0.15625 -0.28125,-0.3125 0,-0.21875 0.28125,-0.546875 0.890625,-1.265625 l 0.765625,1 C 3.34375,-0.78125 3.46875,-0.625 3.46875,-0.5625 c 0,0.09375 -0.09375,0.25 -0.359375,0.25 V 0 C 3.40625,-0.015625 3.96875,-0.03125 4.1875,-0.03125 c 0.265625,0 0.65625,0.015625 0.953125,0.03125 v -0.3125 c -0.53125,0 -0.71875,-0.015625 -0.9375,-0.3125 z m 0,0"
               id="path187" />
          </g>
        </g>
        <g
           style="fill:#000000;fill-opacity:1"
           id="g110">
          <g
             id="use108"
             transform="translate(299.03799,82.361)">
            <path
               style="stroke:none"
               d="m 6.984375,23.421875 c 0,-0.04687 -0.03125,-0.0625 -0.046875,-0.09375 -0.375,-0.375 -1.03125,-1.03125 -1.703125,-2.109375 C 3.625,18.640625 2.90625,15.40625 2.90625,11.5625 c 0,-2.6875 0.359375,-6.140625 2,-9.109375 C 5.6875,1.03125 6.515625,0.21875 6.953125,-0.21875 c 0.03125,-0.03125 0.03125,-0.046875 0.03125,-0.078125 0,-0.109375 -0.078125,-0.109375 -0.21875,-0.109375 -0.140625,0 -0.15625,0 -0.3125,0.15625 -3.328125,3.046875 -4.375,7.609375 -4.375,11.796875 0,3.921875 0.890625,7.875 3.421875,10.859375 0.203125,0.21875 0.578125,0.625 0.984375,0.984375 0.125,0.125 0.140625,0.125 0.28125,0.125 0.140625,0 0.21875,0 0.21875,-0.09375 z m 0,0"
               id="path191" />
          </g>
        </g>
        <g
           style="fill:#000000;fill-opacity:1"
           id="g114">
          <g
             id="use112"
             transform="translate(314.271,89.668999)">
            <path
               style="stroke:none"
               d="m 2.9375,-6.375 c 0,-0.25 0,-0.265625 -0.234375,-0.265625 C 2.078125,-6 1.203125,-6 0.890625,-6 v 0.3125 c 0.203125,0 0.78125,0 1.296875,-0.265625 v 5.171875 c 0,0.359375 -0.03125,0.46875 -0.921875,0.46875 h -0.3125 V 0 c 0.34375,-0.03125 1.203125,-0.03125 1.609375,-0.03125 0.390625,0 1.265625,0 1.609375,0.03125 v -0.3125 h -0.3125 c -0.90625,0 -0.921875,-0.109375 -0.921875,-0.46875 z m 0,0"
               id="path195" />
          </g>
        </g>
        <path
           style="fill:none;stroke:#000000;stroke-width:0.398;stroke-linecap:butt;stroke-linejoin:miter;stroke-miterlimit:10;stroke-opacity:1"
           d="M -5.9375e-4,3.125e-5 H 18.390031"
           transform="matrix(1,0,0,-1,307.567,93.918)"
           id="path116" />
        <g
           style="fill:#000000;fill-opacity:1"
           id="g120">
          <g
             id="use118"
             transform="translate(307.56699,96.110001)">
            <path
               style="stroke:none"
               d="m 3.875,8.515625 -1.75,-3.875 C 2.046875,4.484375 2,4.484375 1.96875,4.484375 c 0,0 -0.0625,0 -0.171875,0.078125 l -0.9375,0.71875 c -0.125,0.109375 -0.125,0.125 -0.125,0.15625 0,0.0625 0.015625,0.109375 0.09375,0.109375 0.0625,0 0.234375,-0.140625 0.34375,-0.21875 C 1.21875,5.28125 1.375,5.171875 1.484375,5.09375 l 1.96875,4.3125 C 3.515625,9.5625 3.5625,9.5625 3.65625,9.5625 c 0.15625,0 0.1875,-0.046875 0.25,-0.1875 L 8.4375,0 C 8.5,-0.140625 8.5,-0.171875 8.5,-0.203125 8.5,-0.296875 8.421875,-0.40625 8.296875,-0.40625 c -0.078125,0 -0.140625,0.0625 -0.21875,0.21875 z m 0,0"
               id="path199" />
          </g>
        </g>
        <path
           style="fill:none;stroke:#000000;stroke-width:0.398;stroke-linecap:butt;stroke-linejoin:miter;stroke-miterlimit:10;stroke-opacity:1"
           d="M -0.0018125,8.4375e-4 H 10.088031"
           transform="matrix(1,0,0,-1,315.869,95.911)"
           id="path122" />
        <g
           style="fill:#000000;fill-opacity:1"
           id="g126">
          <g
             id="use124"
             transform="translate(315.86899,103.853)">
            <path
               style="stroke:none"
               d="m 5.140625,-6.8125 c 0,0 0,-0.109375 -0.125,-0.109375 -0.15625,0 -1.09375,0.09375 -1.265625,0.109375 -0.078125,0.015625 -0.140625,0.0625 -0.140625,0.1875 0,0.125 0.09375,0.125 0.234375,0.125 0.484375,0 0.5,0.0625 0.5,0.171875 L 4.3125,-6.125 3.71875,-3.765625 C 3.53125,-4.140625 3.25,-4.40625 2.796875,-4.40625 c -1.15625,0 -2.390625,1.46875 -2.390625,2.921875 0,0.9375 0.546875,1.59375 1.3125,1.59375 0.203125,0 0.703125,-0.046875 1.296875,-0.75 0.078125,0.421875 0.4375,0.75 0.90625,0.75 0.359375,0 0.578125,-0.234375 0.75,-0.546875 0.15625,-0.359375 0.296875,-0.96875 0.296875,-0.984375 0,-0.109375 -0.09375,-0.109375 -0.125,-0.109375 -0.09375,0 -0.109375,0.046875 -0.140625,0.1875 -0.171875,0.640625 -0.34375,1.234375 -0.75,1.234375 -0.28125,0 -0.296875,-0.265625 -0.296875,-0.453125 0,-0.25 0.015625,-0.3125 0.046875,-0.484375 z m -2.0625,5.625 C 3.015625,-1 3.015625,-0.984375 2.875,-0.8125 2.4375,-0.265625 2.03125,-0.109375 1.75,-0.109375 c -0.5,0 -0.640625,-0.546875 -0.640625,-0.9375 0,-0.5 0.3125,-1.71875 0.546875,-2.1875 0.3125,-0.578125 0.75,-0.953125 1.15625,-0.953125 0.640625,0 0.78125,0.8125 0.78125,0.875 0,0.0625 -0.015625,0.125 -0.03125,0.171875 z m 0,0"
               id="path203" />
          </g>
        </g>
        <g
           style="fill:#000000;fill-opacity:1"
           id="g130">
          <g
             id="use128"
             transform="translate(321.05499,105.347)">
            <path
               style="stroke:none"
               d="m 2.1875,-4.625 c 0,-0.015625 0.015625,-0.109375 0.015625,-0.109375 0,-0.046875 -0.015625,-0.109375 -0.109375,-0.109375 -0.140625,0 -0.71875,0.0625 -0.890625,0.078125 -0.046875,0 -0.15625,0.015625 -0.15625,0.15625 0,0.09375 0.109375,0.09375 0.1875,0.09375 0.328125,0 0.328125,0.0625 0.328125,0.109375 0,0.046875 -0.015625,0.09375 -0.015625,0.15625 L 0.5625,-0.3125 c -0.046875,0.125 -0.046875,0.140625 -0.046875,0.15625 0,0.109375 0.09375,0.21875 0.25,0.21875 0.1875,0 0.265625,-0.125 0.3125,-0.28125 0.015625,-0.03125 0.3125,-1.265625 0.34375,-1.359375 0.5,0.046875 0.890625,0.21875 0.890625,0.578125 0,0.03125 0,0.0625 -0.015625,0.140625 -0.03125,0.09375 -0.03125,0.140625 -0.03125,0.21875 0,0.484375 0.40625,0.703125 0.75,0.703125 0.671875,0 0.875,-1.046875 0.875,-1.0625 0,-0.09375 -0.078125,-0.09375 -0.109375,-0.09375 -0.09375,0 -0.109375,0.046875 -0.140625,0.171875 C 3.5625,-0.625 3.375,-0.125 3.03125,-0.125 c -0.1875,0 -0.25,-0.171875 -0.25,-0.359375 0,-0.125 0,-0.140625 0.046875,-0.3125 0.015625,-0.03125 0.03125,-0.140625 0.03125,-0.21875 0,-0.625 -0.828125,-0.71875 -1.125,-0.734375 C 1.9375,-1.875 2.1875,-2.109375 2.3125,-2.21875 2.671875,-2.546875 3.015625,-2.875 3.40625,-2.875 c 0.078125,0 0.171875,0.015625 0.234375,0.09375 C 3.34375,-2.734375 3.28125,-2.5 3.28125,-2.390625 c 0,0.140625 0.109375,0.25 0.265625,0.25 0.203125,0 0.40625,-0.15625 0.40625,-0.4375 0,-0.234375 -0.171875,-0.5 -0.53125,-0.5 -0.40625,0 -0.765625,0.296875 -1.125,0.625 C 2,-2.1875 1.78125,-1.96875 1.484375,-1.84375 Z m 0,0"
               id="path207" />
          </g>
        </g>
        <g
           style="fill:#000000;fill-opacity:1"
           id="g136">
          <g
             id="use132"
             transform="translate(327.15201,96.408997)">
            <path
               style="stroke:none"
               d="m 8.906248,-0.171875 c 1.625,-0.640625 2.062501,-2.125 2.062501,-3.203125 0,-2.15625 -1.453126,-3.578125 -3.656251,-3.578125 -2.28125,0 -3.671875,1.484375 -3.671875,3.578125 0,2.03125 1.359375,3.484375 3.671875,3.484375 0.21875,0 0.546875,-0.015625 0.9375,-0.09375 0.28125,1.125 0.484375,1.921875 1.40625,1.921875 1.015625,0 1.375001,-1.1875 1.375001,-1.859375 0,-0.078125 0,-0.25 -0.1875,-0.25 -0.140626,0 -0.171876,0.125 -0.171876,0.1875 -0.0625,0.390625 -0.6875,0.390625 -0.859375,0.390625 -0.21875,0 -0.515625,0 -0.90625,-0.578125 z m -2.546875,-0.34375 c -1.21875,-0.578125 -1.25,-2.09375 -1.25,-2.875 0,-0.390625 0,-1.34375 0.359375,-2.046875 0.515625,-0.96875 1.375,-1.109375 1.828125,-1.109375 0.53125,0 1.3125,0.203125 1.796875,1.046875 0.375,0.671875 0.40625,1.515625 0.40625,2.109375 0,0.5625 0,2.046875 -0.953125,2.703125 -0.21875,-0.328125 -0.578125,-0.859375 -1.25,-0.859375 -0.515625,0 -0.96875,0.34375 -0.96875,0.8125 0,0.0625 0.015625,0.171875 0.03125,0.21875 z m 1.765625,0.0625 c -0.25,0.109375 -0.546875,0.15625 -0.8125,0.15625 -0.546875,0 -0.625,-0.3125 -0.625,-0.4375 0,-0.265625 0.296875,-0.453125 0.625,-0.453125 0.265625,0 0.609375,0.109375 0.8125,0.734375 z m 0,0"
               id="path211" />
          </g>
          <g
             id="use134"
             transform="translate(335.7587,96.408997)">
            <path
               style="stroke:none"
               d="m 7.828123,-4.203125 2.40625,-1.984375 c 0.21875,-0.1875 0.625001,-0.1875 0.937501,-0.1875 h 0.15625 v -0.46875 c -0.390625,0.03125 -0.968751,0.03125 -1.015626,0.03125 -0.375,0 -1.09375,0 -1.453125,-0.03125 V -6.375 c 0.125,0 0.328125,0 0.578125,0.0625 0.15625,0.03125 0.046875,0.015625 0.125,0.046875 L 5.874998,-3.1875 V -6.375 h 1.078125 v -0.46875 c -0.375,0.03125 -1.34375,0.03125 -1.78125,0.03125 -0.421875,0 -1.40625,0 -1.78125,-0.03125 V -6.375 h 1.078125 v 5.90625 H 3.390623 V 0 c 0.375,-0.03125 1.359375,-0.03125 1.78125,-0.03125 0.4375,0 1.40625,0 1.78125,0.03125 V -0.46875 H 5.874998 V -2.5625 l 1,-0.828125 2.0625,2.703125 c 0.046875,0.0625 0.046875,0.078125 0.078125,0.140625 -0.1875,0.078125 -0.390625,0.078125 -0.734375,0.078125 V 0 c 0.40625,-0.03125 1.3125,-0.03125 1.75,-0.03125 0.40625,0 1.093751,0 1.468751,0.03125 v -0.46875 h -0.296875 c -0.531251,0 -0.562501,-0.046875 -0.671876,-0.203125 z m 0,0"
               id="path215" />
          </g>
        </g>
        <g
           style="fill:#000000;fill-opacity:1"
           id="g140">
          <g
             id="use138"
             transform="translate(344.73901,92.294998)">
            <path
               style="stroke:none"
               d="m 6.281248,-4.5 h 2.125 c 0.109375,0 0.28125,0 0.28125,-0.15625 0,-0.1875 -0.15625,-0.1875 -0.28125,-0.1875 h -4.59375 c -0.109375,0 -0.28125,0 -0.28125,0.171875 C 3.531248,-4.5 3.703123,-4.5 3.812498,-4.5 h 2.125 v 4.234375 c 0,0.109375 0,0.265625 0.171875,0.265625 0.171875,0 0.171875,-0.171875 0.171875,-0.265625 z m 0,0"
               id="path219" />
          </g>
        </g>
        <g
           style="fill:#000000;fill-opacity:1"
           id="g144">
          <g
             id="use142"
             transform="translate(351.46399,82.361)">
            <path
               style="stroke:none"
               d="m 8.249998,11.5625 c 0,-3.921875 -0.890625,-7.859375 -3.421875,-10.84375 -0.203125,-0.234375 -0.578125,-0.640625 -0.984375,-1 -0.125,-0.125 -0.140625,-0.125 -0.28125,-0.125 -0.125,0 -0.21875,0 -0.21875,0.109375 0,0.03125 0.046875,0.078125 0.0625,0.09375 0.34375,0.359375 1.015625,1.03125 1.6875,2.109375 1.609375,2.5625 2.328125,5.8125 2.328125,9.640625 0,2.6875 -0.359375,6.140625 -2,9.125 -0.78125,1.40625 -1.609375,2.234375 -2.03125,2.65625 -0.015625,0.03125 -0.046875,0.0625 -0.046875,0.09375 0,0.09375 0.09375,0.09375 0.21875,0.09375 0.140625,0 0.15625,0 0.3125,-0.15625 3.328125,-3.03125 4.375,-7.59375 4.375,-11.796875 z m 0,0"
               id="path223" />
          </g>
        </g>
        <g
           style="fill:#000000;fill-opacity:1"
           id="g148">
          <g
             id="use146"
             transform="translate(360.45801,96.408997)">
            <path
               style="stroke:none"
               d="m 10.374998,-6.15625 c 0.0625,-0.125 0.109375,-0.21875 0.828126,-0.21875 h 0.1875 v -0.46875 c -0.375,0.015625 -0.859376,0.03125 -1.125001,0.03125 -0.390625,0 -0.921875,0 -1.296875,-0.03125 V -6.375 c 0.078125,0 0.875,0 0.875,0.125 0,0.046875 -0.03125,0.09375 -0.046875,0.125 l -2.015625,4.53125 -2.125,-4.78125 h 0.9375 v -0.46875 c -0.375,0.03125 -1.328125,0.03125 -1.765625,0.03125 -0.375,0 -1.21875,0 -1.5625,-0.03125 V -6.375 h 0.90625 l 2.75,6.203125 c 0.078125,0.171875 0.125,0.25 0.40625,0.25 0.15625,0 0.28125,0 0.390625,-0.234375 z m 0,0"
               id="path227" />
          </g>
        </g>
      </g>
    </g>
    <g
       inkscape:label=""
       transform="translate(40.048192,208.77455)"
       id="g1003">
      <g
         id="g1001"
         transform="matrix(0.705556,0,0,0.705556,-153.812,-59.9449)">
        <g
           style="fill:#000000;fill-opacity:1"
           id="g875">
          <g
             id="g873"
             transform="translate(217.439,93.917999)">
            <path
               style="stroke:none"
               d="m 6.84375,-3.265625 c 0.15625,0 0.34375,0 0.34375,-0.1875 C 7.1875,-3.65625 7,-3.65625 6.859375,-3.65625 h -5.96875 c -0.140625,0 -0.328125,0 -0.328125,0.203125 0,0.1875 0.1875,0.1875 0.328125,0.1875 z m 0.015625,1.9375 c 0.140625,0 0.328125,0 0.328125,-0.203125 0,-0.1875 -0.1875,-0.1875 -0.34375,-0.1875 H 0.890625 c -0.140625,0 -0.328125,0 -0.328125,0.1875 0,0.203125 0.1875,0.203125 0.328125,0.203125 z m 0,0"
               id="path871" />
          </g>
        </g>
        <g
           style="fill:#000000;fill-opacity:1"
           id="g905">
          <g
             id="g879"
             transform="translate(227.95752,93.917999)">
            <path
               style="stroke:none"
               d="m 2.078125,-1.9375 c 0.21875,0.046875 1.03125,0.203125 1.03125,0.921875 0,0.5 -0.34375,0.90625 -1.125,0.90625 -0.84375,0 -1.203125,-0.5625 -1.390625,-1.421875 C 0.5625,-1.65625 0.5625,-1.6875 0.453125,-1.6875 c -0.125,0 -0.125,0.0625 -0.125,0.234375 V -0.125 c 0,0.171875 0,0.234375 0.109375,0.234375 0.046875,0 0.0625,-0.015625 0.25,-0.203125 0.015625,-0.015625 0.015625,-0.03125 0.203125,-0.21875 0.4375,0.40625 0.890625,0.421875 1.09375,0.421875 1.140625,0 1.609375,-0.671875 1.609375,-1.390625 0,-0.515625 -0.296875,-0.828125 -0.421875,-0.9375 C 2.84375,-2.546875 2.453125,-2.625 2.03125,-2.703125 1.46875,-2.8125 0.8125,-2.9375 0.8125,-3.515625 c 0,-0.359375 0.25,-0.765625 1.109375,-0.765625 1.09375,0 1.15625,0.90625 1.171875,1.203125 0,0.09375 0.09375,0.09375 0.109375,0.09375 0.140625,0 0.140625,-0.046875 0.140625,-0.234375 v -1.015625 c 0,-0.15625 0,-0.234375 -0.109375,-0.234375 -0.046875,0 -0.078125,0 -0.203125,0.125 -0.03125,0.03125 -0.125,0.125 -0.171875,0.15625 -0.375,-0.28125 -0.78125,-0.28125 -0.9375,-0.28125 -1.21875,0 -1.59375,0.671875 -1.59375,1.234375 0,0.34375 0.15625,0.625 0.421875,0.84375 0.328125,0.25 0.609375,0.3125 1.328125,0.453125 z m 0,0"
               id="path877" />
          </g>
          <g
             id="g883"
             transform="translate(231.88676,93.917999)">
            <path
               style="stroke:none"
               d="M 4.6875,-2.140625 C 4.6875,-3.40625 3.703125,-4.46875 2.5,-4.46875 c -1.25,0 -2.21875,1.09375 -2.21875,2.328125 0,1.296875 1.03125,2.25 2.203125,2.25 1.203125,0 2.203125,-0.984375 2.203125,-2.25 z m -2.1875,2 c -0.4375,0 -0.875,-0.203125 -1.140625,-0.671875 -0.25,-0.4375 -0.25,-1.046875 -0.25,-1.40625 0,-0.390625 0,-0.921875 0.234375,-1.359375 C 1.609375,-4.03125 2.078125,-4.25 2.484375,-4.25 c 0.4375,0 0.859375,0.21875 1.125,0.65625 0.265625,0.421875 0.265625,1 0.265625,1.375 0,0.359375 0,0.90625 -0.21875,1.34375 C 3.421875,-0.421875 2.984375,-0.140625 2.5,-0.140625 Z m 0,0"
               id="path881" />
          </g>
          <g
             id="g887"
             transform="translate(236.86806,93.917999)">
            <path
               style="stroke:none"
               d="m 1.75,-4.296875 v -1.15625 c 0,-0.875 0.46875,-1.359375 0.90625,-1.359375 0.03125,0 0.1875,0 0.328125,0.078125 C 2.875,-6.703125 2.6875,-6.5625 2.6875,-6.3125 c 0,0.21875 0.15625,0.421875 0.4375,0.421875 0.28125,0 0.4375,-0.203125 0.4375,-0.4375 0,-0.375 -0.375,-0.703125 -0.90625,-0.703125 -0.6875,0 -1.546875,0.53125 -1.546875,1.59375 v 1.140625 h -0.78125 v 0.3125 h 0.78125 V -0.75 C 1.109375,-0.3125 1,-0.3125 0.34375,-0.3125 V 0 c 0.390625,-0.015625 0.859375,-0.03125 1.125,-0.03125 0.40625,0 0.875,0 1.265625,0.03125 V -0.3125 H 2.53125 c -0.734375,0 -0.75,-0.109375 -0.75,-0.46875 v -3.203125 h 1.125 v -0.3125 z m 0,0"
               id="path885" />
          </g>
          <g
             id="g891"
             transform="translate(239.91263,93.917999)">
            <path
               style="stroke:none"
               d="m 1.71875,-3.984375 h 1.4375 v -0.3125 H 1.71875 V -6.125 h -0.25 c 0,0.8125 -0.296875,1.875 -1.28125,1.921875 v 0.21875 h 0.84375 v 2.75 c 0,1.21875 0.9375,1.34375 1.296875,1.34375 0.703125,0 0.984375,-0.703125 0.984375,-1.34375 v -0.5625 h -0.25 V -1.25 c 0,0.734375 -0.296875,1.109375 -0.671875,1.109375 -0.671875,0 -0.671875,-0.90625 -0.671875,-1.078125 z m 0,0"
               id="path889" />
          </g>
          <g
             id="g895"
             transform="translate(243.78709,93.917999)">
            <path
               style="stroke:none"
               d="M 1.09375,-3.421875 V -0.75 c 0,0.4375 -0.109375,0.4375 -0.78125,0.4375 V 0 c 0.359375,-0.015625 0.859375,-0.03125 1.140625,-0.03125 0.25,0 0.765625,0.015625 1.109375,0.03125 v -0.3125 c -0.671875,0 -0.78125,0 -0.78125,-0.4375 V -2.59375 C 1.78125,-3.625 2.5,-4.1875 3.125,-4.1875 c 0.640625,0 0.75,0.53125 0.75,1.109375 V -0.75 c 0,0.4375 -0.109375,0.4375 -0.78125,0.4375 V 0 c 0.34375,-0.015625 0.859375,-0.03125 1.125,-0.03125 0.25,0 0.78125,0.015625 1.109375,0.03125 v -0.3125 c -0.65625,0 -0.765625,0 -0.765625,-0.4375 v -1.84375 c 0,-1.03125 0.703125,-1.59375 1.34375,-1.59375 0.625,0 0.734375,0.53125 0.734375,1.109375 V -0.75 c 0,0.4375 -0.109375,0.4375 -0.78125,0.4375 V 0 c 0.34375,-0.015625 0.859375,-0.03125 1.125,-0.03125 0.265625,0 0.78125,0.015625 1.125,0.03125 v -0.3125 c -0.515625,0 -0.765625,0 -0.78125,-0.296875 v -1.90625 c 0,-0.859375 0,-1.15625 -0.3125,-1.515625 -0.140625,-0.171875 -0.46875,-0.375 -1.046875,-0.375 -0.828125,0 -1.28125,0.59375 -1.4375,0.984375 C 4.390625,-4.296875 3.65625,-4.40625 3.203125,-4.40625 2.46875,-4.40625 2,-3.984375 1.71875,-3.359375 V -4.40625 L 0.3125,-4.296875 v 0.3125 c 0.703125,0 0.78125,0.0625 0.78125,0.5625 z m 0,0"
               id="path893" />
          </g>
          <g
             id="g899"
             transform="translate(252.08893,93.917999)">
            <path
               style="stroke:none"
               d="m 3.3125,-0.75 c 0.046875,0.390625 0.3125,0.8125 0.78125,0.8125 0.21875,0 0.828125,-0.140625 0.828125,-0.953125 v -0.5625 h -0.25 v 0.5625 c 0,0.578125 -0.25,0.640625 -0.359375,0.640625 -0.328125,0 -0.375,-0.453125 -0.375,-0.5 v -1.984375 c 0,-0.421875 0,-0.8125 -0.359375,-1.1875 C 3.1875,-4.3125 2.6875,-4.46875 2.21875,-4.46875 c -0.828125,0 -1.515625,0.46875 -1.515625,1.125 0,0.296875 0.203125,0.46875 0.46875,0.46875 0.28125,0 0.453125,-0.203125 0.453125,-0.453125 0,-0.125 -0.046875,-0.453125 -0.515625,-0.453125 C 1.390625,-4.140625 1.875,-4.25 2.1875,-4.25 c 0.5,0 1.0625,0.390625 1.0625,1.28125 v 0.359375 c -0.515625,0.03125 -1.203125,0.0625 -1.828125,0.359375 -0.75,0.34375 -1,0.859375 -1,1.296875 0,0.8125 0.96875,1.0625 1.59375,1.0625 0.65625,0 1.109375,-0.40625 1.296875,-0.859375 z M 3.25,-2.390625 v 1 c 0,0.9375 -0.71875,1.28125 -1.171875,1.28125 -0.484375,0 -0.890625,-0.34375 -0.890625,-0.84375 0,-0.546875 0.421875,-1.375 2.0625,-1.4375 z m 0,0"
               id="path897" />
          </g>
          <g
             id="g903"
             transform="translate(257.07022,93.917999)">
            <path
               style="stroke:none"
               d="M 2.859375,-2.34375 C 3.15625,-2.71875 3.53125,-3.203125 3.78125,-3.46875 4.09375,-3.828125 4.5,-3.984375 4.96875,-3.984375 v -0.3125 c -0.265625,0.015625 -0.5625,0.03125 -0.828125,0.03125 -0.296875,0 -0.828125,-0.015625 -0.953125,-0.03125 v 0.3125 c 0.21875,0.015625 0.296875,0.140625 0.296875,0.3125 0,0.15625 -0.109375,0.28125 -0.15625,0.34375 L 2.71875,-2.546875 1.9375,-3.5625 C 1.84375,-3.65625 1.84375,-3.671875 1.84375,-3.734375 c 0,-0.15625 0.15625,-0.25 0.34375,-0.25 v -0.3125 c -0.25,0.015625 -0.90625,0.03125 -1.078125,0.03125 -0.203125,0 -0.671875,-0.015625 -0.9375,-0.03125 v 0.3125 c 0.703125,0 0.703125,0 1.171875,0.609375 l 0.984375,1.28125 -0.9375,1.1875 C 0.921875,-0.328125 0.328125,-0.3125 0.125,-0.3125 V 0 c 0.25,-0.015625 0.5625,-0.03125 0.828125,-0.03125 0.28125,0 0.703125,0.015625 0.9375,0.03125 v -0.3125 c -0.21875,-0.03125 -0.28125,-0.15625 -0.28125,-0.3125 0,-0.21875 0.28125,-0.546875 0.890625,-1.265625 l 0.765625,1 C 3.34375,-0.78125 3.46875,-0.625 3.46875,-0.5625 c 0,0.09375 -0.09375,0.25 -0.359375,0.25 V 0 C 3.40625,-0.015625 3.96875,-0.03125 4.1875,-0.03125 c 0.265625,0 0.65625,0.015625 0.953125,0.03125 v -0.3125 c -0.53125,0 -0.71875,-0.015625 -0.9375,-0.3125 z m 0,0"
               id="path901" />
          </g>
        </g>
        <g
           style="fill:#000000;fill-opacity:1"
           id="g911">
          <g
             id="g909"
             transform="translate(263.987,85.848)">
            <path
               style="stroke:none"
               d="m 4.109375,11.453125 c 0,-0.03125 -0.015625,-0.0625 -0.03125,-0.09375 C 3.625,10.875 2.9375,10.0625 2.515625,8.4375 2.296875,7.53125 2.203125,6.515625 2.203125,5.578125 c 0,-2.625 0.625,-4.453125 1.828125,-5.75 0.078125,-0.09375 0.078125,-0.109375 0.078125,-0.125 C 4.109375,-0.40625 4.03125,-0.40625 4,-0.40625 c -0.15625,0 -0.6875,0.609375 -0.8125,0.75 -1.03125,1.21875 -1.671875,3 -1.671875,5.234375 0,1.40625 0.25,3.40625 1.5625,5.09375 0.09375,0.125 0.734375,0.875 0.921875,0.875 0.03125,0 0.109375,0 0.109375,-0.09375 z m 0,0"
               id="path907" />
          </g>
        </g>
        <g
           style="fill:#000000;fill-opacity:1"
           id="g917">
          <g
             id="g915"
             transform="translate(268.55301,93.917999)">
            <path
               style="stroke:none"
               d="m 5.734375,-5.671875 c 0,-0.75 -0.546875,-1.359375 -1.359375,-1.359375 -0.578125,0 -0.859375,0.15625 -1.203125,0.40625 C 2.625,-6.21875 2.078125,-5.25 1.890625,-4.5 L 0.296875,1.828125 C 0.296875,1.875 0.34375,1.9375 0.421875,1.9375 0.5,1.9375 0.53125,1.90625 0.53125,1.890625 L 1.234375,-0.875 c 0.1875,0.609375 0.625,0.96875 1.359375,0.96875 C 3.3125,0.09375 4.0625,-0.25 4.515625,-0.6875 5,-1.140625 5.3125,-1.78125 5.3125,-2.515625 c 0,-0.71875 -0.375,-1.25 -0.734375,-1.484375 0.578125,-0.34375 1.15625,-0.953125 1.15625,-1.671875 z M 3.9375,-4.015625 c -0.125,0.046875 -0.234375,0.0625 -0.484375,0.0625 -0.140625,0 -0.328125,0.015625 -0.4375,-0.03125 0.03125,-0.109375 0.390625,-0.078125 0.5,-0.078125 0.203125,0 0.296875,0 0.421875,0.046875 z M 5.171875,-5.90625 c 0,0.703125 -0.375,1.421875 -0.890625,1.734375 C 4,-4.28125 3.8125,-4.296875 3.515625,-4.296875 c -0.21875,0 -0.78125,-0.015625 -0.78125,0.3125 0,0.28125 0.515625,0.25 0.6875,0.25 0.375,0 0.53125,0 0.828125,-0.125 0.375,0.359375 0.421875,0.671875 0.4375,1.125 0.015625,0.578125 -0.21875,1.328125 -0.5,1.71875 C 3.796875,-0.484375 3.125,-0.125 2.5625,-0.125 c -0.765625,0 -1.140625,-0.578125 -1.140625,-1.28125 0,-0.09375 0,-0.25 0.046875,-0.4375 L 2.109375,-4.359375 C 2.328125,-5.21875 3.046875,-6.8125 4.25,-6.8125 c 0.578125,0 0.921875,0.3125 0.921875,0.90625 z m 0,0"
               id="path913" />
          </g>
        </g>
        <g
           style="fill:#000000;fill-opacity:1"
           id="g923">
          <g
             id="g921"
             transform="translate(277.48099,93.917999)">
            <path
               style="stroke:none"
               d="M 2.828125,-3.59375 V -6.375 H 4 c 1.609375,0 1.625,0.78125 1.625,1.390625 0,0.5625 0,1.390625 -1.640625,1.390625 z m 2.65625,0.203125 C 6.640625,-3.6875 7.140625,-4.34375 7.140625,-5 c 0,-1 -1.09375,-1.84375 -2.96875,-1.84375 H 0.390625 V -6.375 H 1.46875 v 5.90625 H 0.390625 V 0 c 0.359375,-0.03125 1.328125,-0.03125 1.75,-0.03125 0.421875,0 1.390625,0 1.75,0.03125 v -0.46875 h -1.0625 v -2.765625 h 1.15625 c 0.140625,0 0.578125,0 0.890625,0.328125 0.3125,0.359375 0.3125,0.546875 0.3125,1.265625 0,0.65625 0,1.15625 0.703125,1.484375 0.4375,0.21875 1.0625,0.265625 1.46875,0.265625 1.0625,0 1.1875,-0.890625 1.1875,-1.0625 0,-0.21875 -0.140625,-0.21875 -0.234375,-0.21875 -0.203125,0 -0.21875,0.109375 -0.234375,0.234375 C 8.03125,-0.46875 7.75,-0.25 7.453125,-0.25 c -0.609375,0 -0.6875,-0.703125 -0.75,-1.125 C 6.6875,-1.484375 6.609375,-2.171875 6.59375,-2.21875 6.453125,-2.921875 5.90625,-3.234375 5.484375,-3.390625 Z m 0,0"
               id="path919" />
          </g>
        </g>
        <g
           style="fill:#000000;fill-opacity:1"
           id="g929">
          <g
             id="g927"
             transform="translate(284.79852,93.917999)">
            <path
               style="stroke:none"
               d="m 10.65625,-6.125 c 0.0625,-0.171875 0.0625,-0.1875 0.375,-0.21875 C 11.234375,-6.375 11.4375,-6.375 11.609375,-6.375 v -0.46875 c -0.28125,0.015625 -0.625,0.03125 -1.078125,0.03125 -0.375,0 -0.984375,0 -1.34375,-0.03125 V -6.375 c 0.25,0 0.71875,0 1.015625,0.109375 L 8.484375,-1.796875 6.71875,-6.375 h 0.953125 v -0.46875 c -0.375,0.03125 -1.3125,0.03125 -1.734375,0.03125 -0.390625,0 -1.1875,0 -1.53125,-0.03125 V -6.375 H 5.265625 L 5.671875,-5.3125 4.3125,-1.796875 2.546875,-6.375 h 0.96875 V -6.84375 C 3.125,-6.8125 2.1875,-6.8125 1.765625,-6.8125 c -0.390625,0 -1.171875,0 -1.53125,-0.03125 V -6.375 H 1.09375 l 2.390625,6.203125 c 0.0625,0.15625 0.109375,0.25 0.359375,0.25 0.25,0 0.28125,-0.09375 0.34375,-0.25 l 1.734375,-4.5 1.734375,4.5 c 0.0625,0.15625 0.09375,0.25 0.34375,0.25 0.25,0 0.296875,-0.09375 0.359375,-0.25 z m 0,0"
               id="path925" />
          </g>
        </g>
        <g
           style="fill:#000000;fill-opacity:1"
           id="g935">
          <g
             id="g933"
             transform="translate(296.646,95.412003)">
            <path
               style="stroke:none"
               d="m 3.234375,0.421875 c 0,0.453125 0.09375,0.9375 0.671875,0.9375 0.84375,0 1.25,-1.203125 1.25,-1.359375 0,-0.046875 -0.046875,-0.09375 -0.109375,-0.09375 -0.0625,0 -0.078125,0.0625 -0.09375,0.09375 C 4.78125,0.484375 4.328125,0.625 4.09375,0.625 3.8125,0.625 3.671875,0.5 3.546875,-0.0625 4.78125,-0.5 5.78125,-1.734375 5.78125,-2.96875 c 0,-1.09375 -0.796875,-1.9375 -2.03125,-1.9375 -1.65625,0 -3.265625,1.5625 -3.265625,3.140625 0,1.125 0.828125,1.90625 2.03125,1.90625 0.125,0 0.359375,-0.015625 0.71875,-0.09375 z M 2.03125,-0.171875 c -0.359375,-0.125 -0.875,-0.484375 -0.875,-1.421875 0,-0.453125 0.140625,-1.375 0.78125,-2.15625 0.4375,-0.546875 1.109375,-0.921875 1.765625,-0.921875 0.75,0 1.390625,0.5 1.390625,1.515625 0,0.703125 -0.328125,2.203125 -1.609375,2.828125 C 3.375,-0.765625 3.1875,-1.046875 2.78125,-1.046875 2.390625,-1.046875 2,-0.71875 2,-0.359375 c 0,0.125 0.015625,0.140625 0.03125,0.1875 z m 1.203125,-0.03125 c -0.140625,0.046875 -0.40625,0.125 -0.671875,0.125 -0.109375,0 -0.359375,0 -0.359375,-0.28125 0,-0.265625 0.28125,-0.5 0.578125,-0.5 0.25,0 0.4375,0.109375 0.453125,0.65625 z m 0,0"
               id="path931" />
          </g>
        </g>
        <g
           style="fill:#000000;fill-opacity:1"
           id="g941">
          <g
             id="g939"
             transform="translate(306.185,93.917999)">
            <path
               style="stroke:none"
               d="m 10.65625,-6.125 c 0.0625,-0.171875 0.0625,-0.1875 0.375,-0.21875 C 11.234375,-6.375 11.4375,-6.375 11.609375,-6.375 v -0.46875 c -0.28125,0.015625 -0.625,0.03125 -1.078125,0.03125 -0.375,0 -0.984375,0 -1.34375,-0.03125 V -6.375 c 0.25,0 0.71875,0 1.015625,0.109375 L 8.484375,-1.796875 6.71875,-6.375 h 0.953125 v -0.46875 c -0.375,0.03125 -1.3125,0.03125 -1.734375,0.03125 -0.390625,0 -1.1875,0 -1.53125,-0.03125 V -6.375 H 5.265625 L 5.671875,-5.3125 4.3125,-1.796875 2.546875,-6.375 h 0.96875 V -6.84375 C 3.125,-6.8125 2.1875,-6.8125 1.765625,-6.8125 c -0.390625,0 -1.171875,0 -1.53125,-0.03125 V -6.375 H 1.09375 l 2.390625,6.203125 c 0.0625,0.15625 0.109375,0.25 0.359375,0.25 0.25,0 0.28125,-0.09375 0.34375,-0.25 l 1.734375,-4.5 1.734375,4.5 c 0.0625,0.15625 0.09375,0.25 0.34375,0.25 0.25,0 0.296875,-0.09375 0.359375,-0.25 z m 0,0"
               id="path937" />
          </g>
        </g>
        <g
           style="fill:#000000;fill-opacity:1"
           id="g947">
          <g
             id="g945"
             transform="translate(318.189,89.805)">
            <path
               style="stroke:none"
               d="m 3.28125,-4.5 h 2.125 c 0.109375,0 0.28125,0 0.28125,-0.15625 0,-0.1875 -0.15625,-0.1875 -0.28125,-0.1875 H 0.8125 c -0.109375,0 -0.28125,0 -0.28125,0.171875 C 0.53125,-4.5 0.703125,-4.5 0.8125,-4.5 h 2.125 v 4.234375 C 2.9375,-0.15625 2.9375,0 3.109375,0 3.28125,0 3.28125,-0.171875 3.28125,-0.265625 Z m 0,0"
               id="path943" />
          </g>
        </g>
        <g
           style="fill:#000000;fill-opacity:1"
           id="g953">
          <g
             id="g951"
             transform="translate(318.03,96.380997)">
            <path
               style="stroke:none"
               d="M 3.984375,-2.796875 C 3.953125,-2.859375 3.9375,-2.875 3.9375,-2.890625 c 0,-0.015625 0.015625,-0.015625 0.171875,-0.125 l 0.703125,-0.5 c 0.921875,-0.640625 1.359375,-0.953125 1.84375,-1 0.078125,0 0.171875,0 0.171875,-0.140625 0,-0.0625 -0.046875,-0.09375 -0.09375,-0.09375 -0.15625,0 -0.328125,0.015625 -0.484375,0.015625 -0.1875,0 -0.65625,-0.03125 -0.84375,-0.03125 -0.046875,0 -0.140625,0 -0.140625,0.15625 0,0.015625 0,0.09375 0.09375,0.09375 0.09375,0.015625 0.1875,0.03125 0.1875,0.109375 0,0.125 -0.21875,0.28125 -0.3125,0.34375 L 2.328125,-2.015625 2.875,-4.21875 c 0.0625,-0.234375 0.078125,-0.296875 0.609375,-0.296875 0.125,0 0.21875,0 0.21875,-0.140625 0,-0.0625 -0.046875,-0.109375 -0.109375,-0.109375 -0.203125,0 -0.71875,0.03125 -0.921875,0.03125 -0.109375,0 -0.359375,0 -0.484375,0 C 2.0625,-4.75 1.890625,-4.765625 1.75,-4.765625 c -0.03125,0 -0.140625,0 -0.140625,0.15625 0,0.09375 0.078125,0.09375 0.234375,0.09375 0.109375,0 0.140625,0 0.265625,0.015625 0.140625,0.015625 0.15625,0.03125 0.15625,0.109375 0,0 0,0.046875 -0.03125,0.140625 l -0.9375,3.703125 C 1.25,-0.3125 1.234375,-0.25 0.6875,-0.25 c -0.125,0 -0.203125,0 -0.203125,0.15625 0,0 0,0.09375 0.109375,0.09375 0.203125,0 0.703125,-0.03125 0.90625,-0.03125 0.109375,0 0.359375,0 0.484375,0.015625 C 2.125,-0.015625 2.296875,0 2.421875,0 2.46875,0 2.578125,0 2.578125,-0.15625 2.578125,-0.25 2.484375,-0.25 2.34375,-0.25 c 0,0 -0.140625,0 -0.265625,-0.015625 C 1.921875,-0.28125 1.921875,-0.296875 1.921875,-0.375 1.921875,-0.421875 2,-0.6875 2.25,-1.703125 l 1.15625,-0.8125 1.015625,1.953125 c 0.046875,0.09375 0.046875,0.09375 0.046875,0.125 0,0.171875 -0.203125,0.1875 -0.328125,0.1875 -0.078125,0 -0.171875,0 -0.171875,0.15625 0,0 0,0.09375 0.109375,0.09375 C 4.28125,0 4.78125,-0.03125 4.96875,-0.03125 5.1875,-0.03125 5.46875,0 5.65625,0 5.75,0 5.796875,-0.046875 5.796875,-0.140625 5.796875,-0.25 5.703125,-0.25 5.640625,-0.25 c -0.125,0 -0.34375,-0.015625 -0.46875,-0.234375 z m 0,0"
               id="path949" />
          </g>
        </g>
        <g
           style="fill:#000000;fill-opacity:1"
           id="g959">
          <g
             id="g957"
             transform="translate(325.711,93.917999)">
            <path
               style="stroke:none"
               d="M 7.34375,-6.171875 C 7.4375,-6.3125 7.515625,-6.3125 7.734375,-6.34375 7.90625,-6.359375 8.078125,-6.375 8.25,-6.375 H 8.46875 V -6.84375 C 8.0625,-6.828125 7.609375,-6.8125 7.328125,-6.8125 c -0.390625,0 -0.953125,0 -1.3125,-0.03125 V -6.375 c 0.21875,0 0.5,0 0.75,0.109375 C 6.75,-6.234375 6.75,-6.203125 6.703125,-6.15625 l -1.875,2.75 L 2.8125,-6.375 H 3.65625 V -6.84375 C 3.25,-6.8125 2.28125,-6.8125 1.828125,-6.8125 c -0.390625,0 -1.296875,0 -1.640625,-0.03125 V -6.375 H 1.171875 L 3.65625,-2.734375 V -0.46875 H 2.578125 V 0 c 0.359375,-0.03125 1.328125,-0.03125 1.75,-0.03125 0.421875,0 1.390625,0 1.765625,0.03125 V -0.46875 H 5 v -2.265625 z m 0,0"
               id="path955" />
          </g>
        </g>
        <g
           style="fill:#000000;fill-opacity:1"
           id="g965">
          <g
             id="g963"
             transform="translate(334.659,89.805)">
            <path
               style="stroke:none"
               d="m 3.28125,-4.5 h 2.125 c 0.109375,0 0.28125,0 0.28125,-0.15625 0,-0.1875 -0.15625,-0.1875 -0.28125,-0.1875 H 0.8125 c -0.109375,0 -0.28125,0 -0.28125,0.171875 C 0.53125,-4.5 0.703125,-4.5 0.8125,-4.5 h 2.125 v 4.234375 C 2.9375,-0.15625 2.9375,0 3.109375,0 3.28125,0 3.28125,-0.171875 3.28125,-0.265625 Z m 0,0"
               id="path961" />
          </g>
        </g>
        <g
           style="fill:#000000;fill-opacity:1"
           id="g971">
          <g
             id="g969"
             transform="translate(341.384,85.848)">
            <path
               style="stroke:none"
               d="m 3.046875,5.578125 c 0,-1.40625 -0.25,-3.421875 -1.5625,-5.09375 -0.09375,-0.125 -0.75,-0.890625 -0.921875,-0.890625 -0.046875,0 -0.125,0.03125 -0.125,0.109375 0,0.03125 0.015625,0.0625 0.0625,0.09375 C 0.984375,0.3125 1.625,1.125 2.03125,2.71875 2.265625,3.625 2.359375,4.640625 2.359375,5.578125 c 0,1 -0.09375,2.015625 -0.359375,3 -0.375,1.390625 -0.96875,2.1875 -1.46875,2.75 -0.09375,0.09375 -0.09375,0.109375 -0.09375,0.125 0,0.07813 0.078125,0.09375 0.125,0.09375 0.140625,0 0.6875,-0.59375 0.8125,-0.734375 1.015625,-1.21875 1.671875,-3 1.671875,-5.234375 z m 0,0"
               id="path967" />
          </g>
        </g>
        <g
           style="fill:#000000;fill-opacity:1"
           id="g981">
          <g
             id="g975"
             transform="translate(347.60999,93.917999)">
            <path
               style="stroke:none"
               d="M 7.34375,-6.171875 C 7.4375,-6.3125 7.515625,-6.3125 7.734375,-6.34375 7.90625,-6.359375 8.078125,-6.375 8.25,-6.375 H 8.46875 V -6.84375 C 8.0625,-6.828125 7.609375,-6.8125 7.328125,-6.8125 c -0.390625,0 -0.953125,0 -1.3125,-0.03125 V -6.375 c 0.21875,0 0.5,0 0.75,0.109375 C 6.75,-6.234375 6.75,-6.203125 6.703125,-6.15625 l -1.875,2.75 L 2.8125,-6.375 H 3.65625 V -6.84375 C 3.25,-6.8125 2.28125,-6.8125 1.828125,-6.8125 c -0.390625,0 -1.296875,0 -1.640625,-0.03125 V -6.375 H 1.171875 L 3.65625,-2.734375 V -0.46875 H 2.578125 V 0 c 0.359375,-0.03125 1.328125,-0.03125 1.75,-0.03125 0.421875,0 1.390625,0 1.765625,0.03125 V -0.46875 H 5 v -2.265625 z m 0,0"
               id="path973" />
          </g>
          <g
             id="g979"
             transform="translate(356.27148,93.917999)">
            <path
               style="stroke:none"
               d="m 10.65625,-6.125 c 0.0625,-0.171875 0.0625,-0.1875 0.375,-0.21875 C 11.234375,-6.375 11.4375,-6.375 11.609375,-6.375 v -0.46875 c -0.28125,0.015625 -0.625,0.03125 -1.078125,0.03125 -0.375,0 -0.984375,0 -1.34375,-0.03125 V -6.375 c 0.25,0 0.71875,0 1.015625,0.109375 L 8.484375,-1.796875 6.71875,-6.375 h 0.953125 v -0.46875 c -0.375,0.03125 -1.3125,0.03125 -1.734375,0.03125 -0.390625,0 -1.1875,0 -1.53125,-0.03125 V -6.375 H 5.265625 L 5.671875,-5.3125 4.3125,-1.796875 2.546875,-6.375 h 0.96875 V -6.84375 C 3.125,-6.8125 2.1875,-6.8125 1.765625,-6.8125 c -0.390625,0 -1.171875,0 -1.53125,-0.03125 V -6.375 H 1.09375 l 2.390625,6.203125 c 0.0625,0.15625 0.109375,0.25 0.359375,0.25 0.25,0 0.28125,-0.09375 0.34375,-0.25 l 1.734375,-4.5 1.734375,4.5 c 0.0625,0.15625 0.09375,0.25 0.34375,0.25 0.25,0 0.296875,-0.09375 0.359375,-0.25 z m 0,0"
               id="path977" />
          </g>
        </g>
        <g
           style="fill:#000000;fill-opacity:1"
           id="g987">
          <g
             id="g985"
             transform="translate(368.117,95.412003)">
            <path
               style="stroke:none"
               d="M 3.984375,-2.796875 C 3.953125,-2.859375 3.9375,-2.875 3.9375,-2.890625 c 0,-0.015625 0.015625,-0.015625 0.171875,-0.125 l 0.703125,-0.5 c 0.921875,-0.640625 1.359375,-0.953125 1.84375,-1 0.078125,0 0.171875,0 0.171875,-0.140625 0,-0.0625 -0.046875,-0.09375 -0.09375,-0.09375 -0.15625,0 -0.328125,0.015625 -0.484375,0.015625 -0.1875,0 -0.65625,-0.03125 -0.84375,-0.03125 -0.046875,0 -0.140625,0 -0.140625,0.15625 0,0.015625 0,0.09375 0.09375,0.09375 0.09375,0.015625 0.1875,0.03125 0.1875,0.109375 0,0.125 -0.21875,0.28125 -0.3125,0.34375 L 2.328125,-2.015625 2.875,-4.21875 c 0.0625,-0.234375 0.078125,-0.296875 0.609375,-0.296875 0.125,0 0.21875,0 0.21875,-0.140625 0,-0.0625 -0.046875,-0.109375 -0.109375,-0.109375 -0.203125,0 -0.71875,0.03125 -0.921875,0.03125 -0.109375,0 -0.359375,0 -0.484375,0 C 2.0625,-4.75 1.890625,-4.765625 1.75,-4.765625 c -0.03125,0 -0.140625,0 -0.140625,0.15625 0,0.09375 0.078125,0.09375 0.234375,0.09375 0.109375,0 0.140625,0 0.265625,0.015625 0.140625,0.015625 0.15625,0.03125 0.15625,0.109375 0,0 0,0.046875 -0.03125,0.140625 l -0.9375,3.703125 C 1.25,-0.3125 1.234375,-0.25 0.6875,-0.25 c -0.125,0 -0.203125,0 -0.203125,0.15625 0,0 0,0.09375 0.109375,0.09375 0.203125,0 0.703125,-0.03125 0.90625,-0.03125 0.109375,0 0.359375,0 0.484375,0.015625 C 2.125,-0.015625 2.296875,0 2.421875,0 2.46875,0 2.578125,0 2.578125,-0.15625 2.578125,-0.25 2.484375,-0.25 2.34375,-0.25 c 0,0 -0.140625,0 -0.265625,-0.015625 C 1.921875,-0.28125 1.921875,-0.296875 1.921875,-0.375 1.921875,-0.421875 2,-0.6875 2.25,-1.703125 l 1.15625,-0.8125 1.015625,1.953125 c 0.046875,0.09375 0.046875,0.09375 0.046875,0.125 0,0.171875 -0.203125,0.1875 -0.328125,0.1875 -0.078125,0 -0.171875,0 -0.171875,0.15625 0,0 0,0.09375 0.109375,0.09375 C 4.28125,0 4.78125,-0.03125 4.96875,-0.03125 5.1875,-0.03125 5.46875,0 5.65625,0 5.75,0 5.796875,-0.046875 5.796875,-0.140625 5.796875,-0.25 5.703125,-0.25 5.640625,-0.25 c -0.125,0 -0.34375,-0.015625 -0.46875,-0.234375 z m 0,0"
               id="path983" />
          </g>
        </g>
        <g
           style="fill:#000000;fill-opacity:1"
           id="g993">
          <g
             id="g991"
             transform="translate(375.798,93.917999)">
            <path
               style="stroke:none"
               d="m 10.65625,-6.125 c 0.0625,-0.171875 0.0625,-0.1875 0.375,-0.21875 C 11.234375,-6.375 11.4375,-6.375 11.609375,-6.375 v -0.46875 c -0.28125,0.015625 -0.625,0.03125 -1.078125,0.03125 -0.375,0 -0.984375,0 -1.34375,-0.03125 V -6.375 c 0.25,0 0.71875,0 1.015625,0.109375 L 8.484375,-1.796875 6.71875,-6.375 h 0.953125 v -0.46875 c -0.375,0.03125 -1.3125,0.03125 -1.734375,0.03125 -0.390625,0 -1.1875,0 -1.53125,-0.03125 V -6.375 H 5.265625 L 5.671875,-5.3125 4.3125,-1.796875 2.546875,-6.375 h 0.96875 V -6.84375 C 3.125,-6.8125 2.1875,-6.8125 1.765625,-6.8125 c -0.390625,0 -1.171875,0 -1.53125,-0.03125 V -6.375 H 1.09375 l 2.390625,6.203125 c 0.0625,0.15625 0.109375,0.25 0.359375,0.25 0.25,0 0.28125,-0.09375 0.34375,-0.25 l 1.734375,-4.5 1.734375,4.5 c 0.0625,0.15625 0.09375,0.25 0.34375,0.25 0.25,0 0.296875,-0.09375 0.359375,-0.25 z m 0,0"
               id="path989" />
          </g>
        </g>
        <g
           style="fill:#000000;fill-opacity:1"
           id="g999">
          <g
             id="g997"
             transform="translate(387.642,95.412003)">
            <path
               style="stroke:none"
               d="m 4.984375,-3.9375 c 0.25,-0.375 0.484375,-0.546875 0.859375,-0.578125 0.078125,0 0.15625,0 0.15625,-0.140625 0,-0.03125 -0.015625,-0.109375 -0.09375,-0.109375 -0.171875,0 -0.390625,0.03125 -0.5625,0.03125 -0.21875,0 -0.515625,-0.03125 -0.71875,-0.03125 -0.0625,0 -0.140625,0.03125 -0.140625,0.15625 0,0.09375 0.09375,0.09375 0.125,0.09375 0.21875,0.015625 0.28125,0.109375 0.28125,0.203125 0,0.109375 -0.046875,0.171875 -0.125,0.28125 l -2.28125,3.375 -0.640625,-3.5625 c -0.015625,-0.0625 -0.015625,-0.078125 -0.015625,-0.109375 0,-0.1875 0.390625,-0.1875 0.4375,-0.1875 0.125,0 0.21875,0 0.21875,-0.140625 0,-0.015625 -0.015625,-0.109375 -0.125,-0.109375 -0.203125,0 -0.6875,0.03125 -0.890625,0.03125 -0.171875,0 -0.609375,-0.03125 -0.78125,-0.03125 -0.0625,0 -0.140625,0.03125 -0.140625,0.15625 0,0.09375 0.09375,0.09375 0.171875,0.09375 0.390625,0 0.40625,0.046875 0.4375,0.234375 l 0.765625,4.234375 c 0.015625,0.140625 0.03125,0.1875 0.15625,0.1875 0.140625,0 0.171875,-0.046875 0.25,-0.15625 z m 0,0"
               id="path995" />
          </g>
        </g>
      </g>
    </g>
    <path
       style="fill:none;stroke:#ff0000;stroke-width:0.264583px;stroke-linecap:butt;stroke-linejoin:miter;stroke-opacity:1"
       d="m 87.072647,188.8851 -8.082588,18.15543 m 18.485209,-23.16024 -5.965921,22.38876"
       id="path1233"
       sodipodi:nodetypes="cccc" />
    <path
       id="rect1287-3"
       style="fill:none;fill-opacity:0;stroke:#ff0000;stroke-width:0.264583;stop-color:#000000"
       d="m 105.29177,208.06517 v -2.04792 h 16.70714 v 2.04792"
       sodipodi:nodetypes="cccc" />
    <path
       style="fill:none;stroke:#ff0000;stroke-width:0.264583px;stroke-linecap:butt;stroke-linejoin:miter;stroke-opacity:1"
       d="m 104.88362,183.88029 9.37991,22.38876"
       id="path1344"
       sodipodi:nodetypes="cc" />
    <path
       id="rect1287-7"
       style="fill:none;fill-opacity:0;stroke:#ff0000;stroke-width:0.264583;stop-color:#000000"
       d="m 131.22095,208.06517 v -2.04792 h 30.99464 v 2.04792"
       sodipodi:nodetypes="cccc" />
    <path
       style="fill:none;stroke:#ff0000;stroke-width:0.264583px;stroke-linecap:butt;stroke-linejoin:miter;stroke-opacity:1"
       d="m 122.34613,183.88029 17.84658,22.38876"
       id="path1365"
       sodipodi:nodetypes="cc" />
  </g>
</svg>
